<?xml version="1.0" encoding="UTF-8" standalone="no"?>
<!-- Created with Inkscape (http://www.inkscape.org/) -->
<svg
   xmlns:svg="http://www.w3.org/2000/svg"
   xmlns="http://www.w3.org/2000/svg"
   xmlns:xlink="http://www.w3.org/1999/xlink"
   version="1.0"
   width="400"
   height="360"
   id="svg1426">
  <defs
     id="defs1428">
    <linearGradient
       x1="6.5595827"
       y1="29.37381"
       x2="6.5595827"
       y2="30.191154"
       id="linearGradient3479"
       xlink:href="#linearGradient3301"
       gradientUnits="userSpaceOnUse"
       gradientTransform="matrix(0.655244,0,0,1.898477,15.6894,-36.74512)" />
    <linearGradient
       id="linearGradient2230">
      <stop
         style="stop-color:#eeeeee;stop-opacity:1"
         offset="0"
         id="stop2232" />
      <stop
         style="stop-color:#a2a2a2;stop-opacity:1"
         offset="1"
         id="stop2234" />
    </linearGradient>
    <linearGradient
       x1="7.9151335"
       y1="30.816841"
       x2="7.9151335"
       y2="24.700985"
       id="linearGradient3486"
       xlink:href="#linearGradient2230"
       gradientUnits="userSpaceOnUse"
       gradientTransform="matrix(1.318423,0,0,0.773191,19.45482,-15.41355)" />
    <linearGradient
       id="linearGradient3301">
      <stop
         style="stop-color:#ffffff;stop-opacity:1"
         offset="0"
         id="stop3303" />
      <stop
         style="stop-color:#cbcbcb;stop-opacity:1"
         offset="1"
         id="stop3305" />
    </linearGradient>
    <linearGradient
       x1="6.5595827"
       y1="29.37381"
       x2="6.5595827"
       y2="30.191154"
       id="linearGradient3484"
       xlink:href="#linearGradient3301"
       gradientUnits="userSpaceOnUse"
       gradientTransform="matrix(1.477785,0,0,1.982181,19.31493,-52.801)" />
    <linearGradient
       id="linearGradient2268">
      <stop
         style="stop-color:#555753;stop-opacity:1"
         offset="0"
         id="stop2270" />
      <stop
         style="stop-color:#141514;stop-opacity:1"
         offset="1"
         id="stop2272" />
    </linearGradient>
    <linearGradient
       x1="29.395439"
       y1="9.4121714"
       x2="29.395439"
       y2="12.84669"
       id="linearGradient3489"
       xlink:href="#linearGradient2268"
       gradientUnits="userSpaceOnUse"
       gradientTransform="translate(0.747462,-1.193323)" />
    <linearGradient
       id="linearGradient2818">
      <stop
         style="stop-color:#ffffff;stop-opacity:1"
         offset="0"
         id="stop2820" />
      <stop
         style="stop-color:#ffffff;stop-opacity:0"
         offset="1"
         id="stop2822" />
    </linearGradient>
    <radialGradient
       cx="14.75"
       cy="22.6875"
       r="1.75"
       fx="14.75"
       fy="22.6875"
       id="radialGradient3234"
       xlink:href="#linearGradient2818"
       gradientUnits="userSpaceOnUse"
       gradientTransform="matrix(1,0,0,1.035714,-7.639712e-15,-0.810268)" />
    <linearGradient
       id="linearGradient2631">
      <stop
         style="stop-color:#010101;stop-opacity:1"
         offset="0"
         id="stop2633" />
      <stop
         style="stop-color:#959595;stop-opacity:1"
         offset="1"
         id="stop2635" />
    </linearGradient>
    <linearGradient
       x1="12.835793"
       y1="18.849401"
       x2="18.422049"
       y2="27.072878"
       id="linearGradient3232"
       xlink:href="#linearGradient2631"
       gradientUnits="userSpaceOnUse" />
    <linearGradient
       id="linearGradient2591">
      <stop
         style="stop-color:#7a7a7a;stop-opacity:1"
         offset="0"
         id="stop2593" />
      <stop
         style="stop-color:#000000;stop-opacity:1"
         offset="1"
         id="stop2595" />
    </linearGradient>
    <radialGradient
       cx="16.875"
       cy="23.672499"
       r="4.625"
       fx="16.875"
       fy="23.672499"
       id="radialGradient3230"
       xlink:href="#linearGradient2591"
       gradientUnits="userSpaceOnUse"
       gradientTransform="matrix(1,0,0,1.013514,2.954017e-15,-0.304899)" />
    <linearGradient
       id="linearGradient2690">
      <stop
         style="stop-color:#ffffff;stop-opacity:1"
         offset="0"
         id="stop2692" />
      <stop
         style="stop-color:#ffffff;stop-opacity:0"
         offset="1"
         id="stop2694" />
    </linearGradient>
    <linearGradient
       x1="16.66662"
       y1="16.12499"
       x2="35.888493"
       y2="57.124992"
       id="linearGradient3497"
       xlink:href="#linearGradient2690"
       gradientUnits="userSpaceOnUse"
       gradientTransform="translate(0.747462,-1.193323)" />
    <linearGradient
       x1="7.8705277"
       y1="29.71875"
       x2="14.84375"
       y2="29.71875"
       id="linearGradient3503"
       xlink:href="#linearGradient2290"
       gradientUnits="userSpaceOnUse"
       gradientTransform="matrix(1.024993,0,0,1,0.679511,-1.193323)" />
    <linearGradient
       id="linearGradient2673">
      <stop
         style="stop-color:#8b8b8b;stop-opacity:1"
         offset="0"
         id="stop2675" />
      <stop
         style="stop-color:#d3d9da;stop-opacity:1"
         offset="0.5"
         id="stop2681" />
      <stop
         style="stop-color:#828282;stop-opacity:1"
         offset="1"
         id="stop2677" />
    </linearGradient>
    <linearGradient
       x1="23.660564"
       y1="35.302856"
       x2="33.904015"
       y2="30.916578"
       id="linearGradient3224"
       xlink:href="#linearGradient2673"
       gradientUnits="userSpaceOnUse" />
    <linearGradient
       id="linearGradient2615">
      <stop
         style="stop-color:#363d40;stop-opacity:1"
         offset="0"
         id="stop2617" />
      <stop
         style="stop-color:#818f95;stop-opacity:1"
         offset="0.5"
         id="stop2623" />
      <stop
         style="stop-color:#31383b;stop-opacity:1"
         offset="1"
         id="stop2619" />
    </linearGradient>
    <linearGradient
       x1="22.549892"
       y1="39.051506"
       x2="38.416191"
       y2="30.566227"
       id="linearGradient3222"
       xlink:href="#linearGradient2615"
       gradientUnits="userSpaceOnUse" />
    <linearGradient
       id="linearGradient2304">
      <stop
         style="stop-color:#353633;stop-opacity:1"
         offset="0"
         id="stop2306" />
      <stop
         style="stop-color:#676964;stop-opacity:1"
         offset="1"
         id="stop2308" />
    </linearGradient>
    <linearGradient
       x1="16.353432"
       y1="26.09341"
       x2="30.130077"
       y2="26.09341"
       id="linearGradient3510"
       xlink:href="#linearGradient2304"
       gradientUnits="userSpaceOnUse"
       gradientTransform="translate(0.747462,-1.193323)" />
    <linearGradient
       id="linearGradient2290">
      <stop
         style="stop-color:#555753;stop-opacity:1"
         offset="0"
         id="stop2292" />
      <stop
         style="stop-color:#313330;stop-opacity:1"
         offset="1"
         id="stop2294" />
    </linearGradient>
    <linearGradient
       x1="7.8705277"
       y1="29.71875"
       x2="14.84375"
       y2="29.71875"
       id="linearGradient3513"
       xlink:href="#linearGradient2290"
       gradientUnits="userSpaceOnUse"
       gradientTransform="matrix(1.035758,0,0,1,0.584989,-0.991293)" />
    <radialGradient
       cx="25.375"
       cy="36.8125"
       r="17.5"
       fx="25.375"
       fy="36.8125"
       id="radialGradient3216"
       xlink:href="#linearGradient2656"
       gradientUnits="userSpaceOnUse"
       gradientTransform="matrix(1,0,0,0.453571,-8.352694e-15,20.1154)" />
    <linearGradient
       id="linearGradient2656">
      <stop
         style="stop-color:#000000;stop-opacity:1"
         offset="0"
         id="stop2658" />
      <stop
         style="stop-color:#000000;stop-opacity:0"
         offset="1"
         id="stop2660" />
    </linearGradient>
    <radialGradient
       cx="25.375"
       cy="36.8125"
       r="17.5"
       fx="25.375"
       fy="36.8125"
       id="radialGradient3214"
       xlink:href="#linearGradient2656"
       gradientUnits="userSpaceOnUse"
       gradientTransform="matrix(1,0,0,0.453571,-3.98674e-14,20.1154)" />
    <linearGradient
       id="g_background">
      <stop
         style="stop-color:#000000;stop-opacity:0.33333299"
         offset="0"
         id="col_01" />
      <stop
         style="stop-color:#000000;stop-opacity:0.078431"
         offset="1"
         id="col_02" />
    </linearGradient>
    <linearGradient
       x1="92.599998"
       y1="304.5"
       x2="263.79999"
       y2="26.290001"
       id="linearGradient2050"
       xlink:href="#g_background"
       gradientUnits="userSpaceOnUse"
       gradientTransform="matrix(0.851641,-0.524127,0.524127,0.851641,-45.27941,132.512)" />
  </defs>
  <g
     id="g1434">
    <title
       id="title1436">Layer 1</title>
    <path
       d="M 361.8118,80.415833 C 405.81082,151.90878 369.03348,254.45061 279.6673,309.4494 C 190.30112,364.44818 82.18724,351.07703 38.188209,279.58408 C -5.810832,208.09114 30.96651,105.54933 120.33269,50.55053 C 209.69887,-4.448268 317.81274,8.922882 361.8118,80.415833 L 361.8118,80.415833 L 361.8118,80.415833 z "
       style="fill:url(#linearGradient2050);stroke-linejoin:round;stroke-miterlimit:4;stroke-dashoffset:0"
       id="con-struct" />
  </g>
  <g
     transform="matrix(6.157729,0,0,6.157729,41.2413,34.37926)"
     id="g1687">
    <path
       d="M 42.875 36.8125 A 17.5 7.9375 0 1 1  7.875,36.8125 A 17.5 7.9375 0 1 1  42.875 36.8125 z"
       transform="matrix(0.693194,0,0,0.811023,14.65765,8.763367)"
       style="opacity:0.39873418;fill:url(#radialGradient3214);fill-opacity:1;fill-rule:nonzero;stroke:none;stroke-width:1;stroke-linecap:butt;stroke-linejoin:miter;marker:none;marker-start:none;marker-mid:none;marker-end:none;stroke-miterlimit:4;stroke-dasharray:none;stroke-dashoffset:0;stroke-opacity:1;visibility:visible;display:block;overflow:visible"
       id="path2664" />
    <path
       d="M 42.875 36.8125 A 17.5 7.9375 0 1 1  7.875,36.8125 A 17.5 7.9375 0 1 1  42.875 36.8125 z"
       transform="matrix(1.15748,0,0,0.811023,-5.123601,5.76337)"
       style="opacity:0.5822785;fill:url(#radialGradient3216);fill-opacity:1;fill-rule:nonzero;stroke:none;stroke-width:1;stroke-linecap:butt;stroke-linejoin:miter;marker:none;marker-start:none;marker-mid:none;marker-end:none;stroke-miterlimit:4;stroke-dasharray:none;stroke-dashoffset:0;stroke-opacity:1;visibility:visible;display:block;overflow:visible"
       id="path2654" />
    <path
       d="M 9.6802382,17.727457 C 6.2089691,17.727457 3.4009553,18.847457 3.4009553,20.227457 C 3.4009553,20.384249 3.5579648,20.516139 3.6275274,20.664957 C 3.6173409,20.714389 3.5304251,20.706137 3.5304251,20.758707 C 3.5304251,20.758707 3.4009553,37.070665 3.4009553,37.227457 C 3.4009553,38.607457 6.2089691,39.727457 9.6802382,39.727457 C 13.151508,39.727457 15.959521,38.607457 15.959521,37.227457 L 15.830052,20.758707 C 15.830052,20.706137 15.743136,20.714389 15.732949,20.664957 C 15.802512,20.516139 15.959521,20.384249 15.959521,20.227457 C 15.959521,18.847457 13.151508,17.727457 9.6802382,17.727457 z "
       style="fill:url(#linearGradient3513);fill-opacity:1;fill-rule:nonzero;stroke:#282828;stroke-width:0.32479516;stroke-linecap:butt;stroke-linejoin:miter;marker:none;marker-start:none;marker-mid:none;marker-end:none;stroke-miterlimit:4;stroke-dasharray:none;stroke-dashoffset:0;stroke-opacity:1;visibility:visible;display:block;overflow:visible"
       id="path2608" />
    <path
       d="M 2.8903191,37.45461 L 43.033176,37.45461 C 44.144344,37.555625 45.252538,36.304574 45.252538,35.597467 L 45.252538,17.949534 C 45.151523,16.838366 41.283568,15.525779 40.374431,15.424764 L 37.942313,15.424764 L 35.018788,12.339802 L 24.461748,12.339802 L 21.02628,15.371209 C 21.02628,15.371209 14.299465,15.582863 9.0851707,16.538294 C 3.8708761,17.493725 2.747462,19.125568 2.747462,20.337751 L 2.8903191,37.45461 z "
       style="fill:url(#linearGradient3510);fill-opacity:1;fill-rule:nonzero;stroke:#282828;stroke-width:0.16239755;stroke-linecap:butt;stroke-linejoin:miter;marker:none;marker-start:none;marker-mid:none;marker-end:none;stroke-miterlimit:4;stroke-dasharray:none;stroke-dashoffset:0;stroke-opacity:1;visibility:visible;display:block;overflow:visible"
       id="path8417" />
    <path
       d="M 34.63808,12.714029 L 36.001786,16.502101 L 37.870568,16.047532 L 34.63808,12.714029 z "
       style="fill:#3f413e;fill-opacity:1;fill-rule:nonzero;stroke:none;stroke-width:1;stroke-linecap:butt;stroke-linejoin:miter;marker:none;marker-start:none;marker-mid:none;marker-end:none;stroke-miterlimit:4;stroke-dasharray:none;stroke-dashoffset:0;stroke-opacity:1;visibility:visible;display:block;overflow:visible"
       id="path2300" />
    <path
       d="M 43.133513 33.908371 A 1.9697975 1.9697975 0 1 1  39.193918,33.908371 A 1.9697975 1.9697975 0 1 1  43.133513 33.908371 z"
       transform="matrix(1.256914,0,0,1.256914,-10.93929,-11.21811)"
       style="fill:#585b57;fill-opacity:1;fill-rule:nonzero;stroke:#a7a7a7;stroke-width:0.12920339;stroke-linecap:butt;stroke-linejoin:miter;marker:none;marker-start:none;marker-mid:none;marker-end:none;stroke-miterlimit:4;stroke-dasharray:none;stroke-dashoffset:0;stroke-opacity:1;visibility:visible;display:block;overflow:visible"
       id="path2302" />
    <path
       d="M 40.714286 33.57143 A 10.142858 10.142858 0 1 1  20.428571,33.57143 A 10.142858 10.142858 0 1 1  40.714286 33.57143 z"
       transform="matrix(1.082923,0,0,1.082923,-2.573039,-5.579007)"
       style="fill:url(#linearGradient3222);fill-opacity:1;fill-rule:nonzero;stroke:none;stroke-width:1;stroke-linecap:butt;stroke-linejoin:miter;marker:none;marker-start:none;marker-mid:none;marker-end:none;stroke-miterlimit:4;stroke-dasharray:none;stroke-dashoffset:0;stroke-opacity:1;visibility:visible;display:block;overflow:visible"
       id="path2280" />
    <path
       d="M 40.714286 33.57143 A 10.142858 10.142858 0 1 1  20.428571,33.57143 A 10.142858 10.142858 0 1 1  40.714286 33.57143 z"
       transform="matrix(1.082923,0,0,1.082923,-2.407577,-3.689253)"
       style="fill:url(#linearGradient3224);fill-opacity:1;fill-rule:nonzero;stroke:none;stroke-width:1;stroke-linecap:butt;stroke-linejoin:miter;marker:none;marker-start:none;marker-mid:none;marker-end:none;stroke-miterlimit:4;stroke-dasharray:none;stroke-dashoffset:0;stroke-opacity:1;visibility:visible;display:block;overflow:visible"
       id="path2278" />
    <path
       d="M 9.6802349,17.525427 C 6.2450424,17.525427 3.466212,18.645427 3.466212,20.025427 C 3.466212,20.182219 3.6215897,20.314109 3.6904293,20.462927 C 3.6803487,20.512359 3.5943362,20.504107 3.5943362,20.556677 C 3.5943362,20.556677 3.466212,36.868635 3.466212,37.025427 C 3.466212,38.405427 6.2450424,39.525427 9.6802349,39.525427 C 13.115428,39.525427 15.894258,38.405427 15.894258,37.025427 L 15.766134,20.556677 C 15.766134,20.504107 15.680121,20.512359 15.67004,20.462927 C 15.73888,20.314109 15.894258,20.182219 15.894258,20.025427 C 15.894258,18.645427 13.115428,17.525427 9.6802349,17.525427 z "
       style="fill:url(#linearGradient3503);fill-opacity:1;fill-rule:nonzero;stroke:none;stroke-width:1;stroke-linecap:butt;stroke-linejoin:miter;marker:none;marker-start:none;marker-mid:none;marker-end:none;stroke-miterlimit:4;stroke-dasharray:none;stroke-dashoffset:0;stroke-opacity:1;visibility:visible;display:block;overflow:visible"
       id="path7949" />
    <path
       d="M 24.991123,12.966567 L 24.233509,16.603116 L 23.879955,17.815299 L 21.102035,15.744486 L 24.991123,12.966567 z "
       style="fill:#7b7e79;fill-opacity:1;fill-rule:nonzero;stroke:none;stroke-width:1;stroke-linecap:butt;stroke-linejoin:miter;marker:none;marker-start:none;marker-mid:none;marker-end:none;stroke-miterlimit:4;stroke-dasharray:none;stroke-dashoffset:0;stroke-opacity:1;visibility:visible;display:block;overflow:visible"
       id="path2298" />
    <path
       d="M 19.777543,26.801977 L 24.688077,18.21936 L 35.900771,18.21936 L 40.73935,25.334718 L 36.001786,16.603116 L 24.183001,16.603116 L 19.777543,26.801977 z "
       style="fill:#a7aba7;fill-opacity:1;fill-rule:nonzero;stroke:none;stroke-width:1;stroke-linecap:butt;stroke-linejoin:miter;marker:none;marker-start:none;marker-mid:none;marker-end:none;stroke-miterlimit:4;stroke-dasharray:none;stroke-dashoffset:0;stroke-opacity:1;visibility:visible;display:block;overflow:visible"
       id="path2276" />
    <path
       d="M 21.059962,15.681677 C 21.059962,15.681677 8.914066,16.31974 4.903712,18.431677 C 4.0516721,18.880379 3.4157044,19.272284 3.4157044,19.873904 C 3.4157044,21.253904 6.2397834,22.900427 9.591212,22.900427 C 12.942641,22.900427 15.591212,21.405427 15.591212,20.025427 C 15.591212,19.711088 15.411281,19.396373 15.153712,19.119177 L 23.778712,17.306677 L 21.059962,15.681677 z "
       style="fill:#888a85;fill-opacity:1;fill-rule:nonzero;stroke:none;stroke-width:1;stroke-linecap:butt;stroke-linejoin:miter;marker:none;marker-start:none;marker-mid:none;marker-end:none;stroke-miterlimit:4;stroke-dashoffset:0;stroke-opacity:1;visibility:visible;display:block;overflow:visible"
       id="path7953" />
    <path
       d="M 25.300673,13.288795 L 21.383371,16.08178 C 21.383371,16.081781 14.938629,16.516814 10.134194,17.397145 C 5.329759,18.277477 3.914082,19.23057 3.789082,20.409971 L 4.015201,37.001395 C 4.3111627,38.162477 7.2452578,39.074538 10.243774,39.074538 C 13.24229,39.074538 15.745162,37.474977 16.041124,36.313895 L 42.529105,36.438895 C 43.990433,36.469469 44.260954,35.737802 44.260954,35.086276 L 44.260954,18.409154 C 44.260954,17.69717 41.41932,16.544942 40.581644,16.451867 L 37.648239,16.514367 L 34.407929,13.288795 L 25.300673,13.288795 z "
       style="opacity:0.4177215;fill:none;fill-opacity:1;fill-rule:nonzero;stroke:url(#linearGradient3497);stroke-width:0.16239755;stroke-linecap:butt;stroke-linejoin:miter;marker:none;marker-start:none;marker-mid:none;marker-end:none;stroke-miterlimit:4;stroke-dasharray:none;stroke-dashoffset:0;stroke-opacity:1;visibility:visible;display:block;overflow:visible"
       id="path2683" />
    <path
       d="M 40.714286 33.57143 A 10.142858 10.142858 0 1 1  20.428571,33.57143 A 10.142858 10.142858 0 1 1  40.714286 33.57143 z"
       transform="matrix(1.082923,0,0,1.082923,-2.303429,-2.762173)"
       style="fill:#2e3436;fill-opacity:1;fill-rule:nonzero;stroke:none;stroke-width:1;stroke-linecap:butt;stroke-linejoin:miter;marker:none;marker-start:none;marker-mid:none;marker-end:none;stroke-miterlimit:4;stroke-dasharray:none;stroke-dashoffset:0;stroke-opacity:1;visibility:visible;display:block;overflow:visible"
       id="path8415" />
    <path
       d="M 19.875 22.5625 A 4.125 4.1875 0 1 1  11.625,22.5625 A 4.125 4.1875 0 1 1  19.875 22.5625 z"
       transform="matrix(1.676984,0,0,1.676984,4.235881,-4.243849)"
       style="fill:url(#radialGradient3230);fill-opacity:1;fill-rule:nonzero;stroke:url(#linearGradient3232);stroke-width:0.09683909;stroke-linecap:butt;stroke-linejoin:miter;marker:none;marker-start:none;marker-mid:none;marker-end:none;stroke-miterlimit:4;stroke-dashoffset:0;stroke-opacity:1;visibility:visible;display:inline;overflow:visible;font-family:Bitstream Vera Sans"
       id="path2589" />
    <path
       d="M 16.5 22.6875 A 1.75 1.8125 0 1 1  13,22.6875 A 1.75 1.8125 0 1 1  16.5 22.6875 z"
       transform="matrix(1.676984,0,0,1.676984,6.24741,-4.388497)"
       style="opacity:0.60759499;fill:#ffffff;fill-opacity:0.52866247;fill-rule:nonzero;stroke:none;stroke-width:1;stroke-linecap:butt;stroke-linejoin:miter;marker:none;marker-start:none;marker-mid:none;marker-end:none;stroke-miterlimit:4;stroke-dashoffset:0;stroke-opacity:1;visibility:visible;display:inline;overflow:visible;font-family:Bitstream Vera Sans"
       id="path2599" />
    <path
       d="M 16.5 22.6875 A 1.75 1.8125 0 1 1  13,22.6875 A 1.75 1.8125 0 1 1  16.5 22.6875 z"
       transform="matrix(1.673245,0,0,1.673245,4.081402,-6.19387)"
       style="opacity:0.37341769;fill:#ffffff;fill-opacity:1;fill-rule:nonzero;stroke:none;stroke-width:1;stroke-linecap:butt;stroke-linejoin:miter;marker:none;marker-start:none;marker-mid:none;marker-end:none;stroke-miterlimit:4;stroke-dashoffset:0;stroke-opacity:1;visibility:visible;display:inline;overflow:visible;font-family:Bitstream Vera Sans"
       id="path2601" />
    <path
       d="M 16.5 22.6875 A 1.75 1.8125 0 1 1  13,22.6875 A 1.75 1.8125 0 1 1  16.5 22.6875 z"
       transform="matrix(0.41273,0,0,0.41273,28.19882,27.78865)"
       style="fill:url(#radialGradient3234);fill-opacity:1;fill-rule:nonzero;stroke:none;stroke-width:1;stroke-linecap:butt;stroke-linejoin:miter;marker:none;marker-start:none;marker-mid:none;marker-end:none;stroke-miterlimit:4;stroke-dashoffset:0;stroke-opacity:1;visibility:visible;display:inline;overflow:visible;font-family:Bitstream Vera Sans"
       id="path8405" />
    <path
       d="M 22.970818,14.38078 L 25.90026,12.25946 L 26.809397,9.8350936 L 33.173358,9.8350936 L 34.486557,12.764537 L 37.314984,15.188902 L 34.789603,4.2792544 L 24.890108,4.2792544 L 22.970818,14.38078 z "
       style="fill:url(#linearGradient3489);fill-opacity:1;fill-rule:nonzero;stroke:none;stroke-width:1;stroke-linecap:butt;stroke-linejoin:miter;marker:none;marker-start:none;marker-mid:none;marker-end:none;stroke-miterlimit:4;stroke-dasharray:none;stroke-dashoffset:0;stroke-opacity:1;visibility:visible;display:block;overflow:visible"
       id="path1507" />
    <rect
       width="9.328516"
       height="4.5837932"
       rx="0.24417193"
       ry="0.24417208"
       x="25.226055"
       y="3.4433544"
       style="fill:url(#linearGradient3484);fill-opacity:1;fill-rule:nonzero;stroke:url(#linearGradient3486);stroke-width:0.16239761;stroke-linecap:butt;stroke-linejoin:miter;marker:none;marker-start:none;marker-mid:none;marker-end:none;stroke-miterlimit:4;stroke-dashoffset:0;stroke-opacity:1;visibility:visible;display:inline;overflow:visible;font-family:Bitstream Vera Sans"
       id="rect3297" />
    <path
       d="M 14.857143 38.214287 A 6.0714288 2.5 0 1 1  2.7142854,38.214287 A 6.0714288 2.5 0 1 1  14.857143 38.214287 z"
       transform="matrix(0.359444,0,0,0.554344,8.446013,-1.120268)"
       style="fill:#2f302e;fill-opacity:1;fill-rule:nonzero;stroke:none;stroke-width:1;stroke-linecap:butt;stroke-linejoin:miter;marker:none;marker-start:none;marker-mid:none;marker-end:none;stroke-miterlimit:4;stroke-dasharray:none;stroke-dashoffset:0;stroke-opacity:1;visibility:visible;display:block;overflow:visible"
       id="path2288" />
    <path
       d="M 3.4508891,20.057241 C 3.3153373,21.842905 5.8947346,23.937445 9.6462586,23.938714 C 13.460283,23.939983 15.495689,21.754894 15.697719,19.835604 L 20.243406,18.118345 L 15.091628,19.128497 C 15.192644,21.047787 13.389791,22.958955 9.6513349,22.899501 C 5.5649685,22.83352 4.0758891,21.244741 3.4508891,20.057241 z "
       style="fill:#c4c6c3;fill-opacity:1;fill-rule:nonzero;stroke:none;stroke-width:1;stroke-linecap:butt;stroke-linejoin:miter;marker:none;marker-start:none;marker-mid:none;marker-end:none;stroke-miterlimit:4;stroke-dasharray:none;stroke-dashoffset:0;stroke-opacity:1;visibility:visible;display:block;overflow:visible"
       id="path2312" />
    <rect
       width="4.1362314"
       height="4.3902278"
       rx="0.11293504"
       ry="0.1129351"
       x="18.310377"
       y="17.124151"
       style="fill:url(#linearGradient3479);fill-opacity:1;fill-rule:nonzero;stroke:#464646;stroke-width:0.16239749;stroke-linecap:butt;stroke-linejoin:miter;marker:none;marker-start:none;marker-mid:none;marker-end:none;stroke-miterlimit:4;stroke-dashoffset:0;stroke-opacity:1;visibility:visible;display:inline;overflow:visible;font-family:Bitstream Vera Sans"
       id="rect2282" />
    <path
       d="M 16.5 22.6875 A 1.75 1.8125 0 1 1  13,22.6875 A 1.75 1.8125 0 1 1  16.5 22.6875 z"
       transform="matrix(0.389835,0,0,0.389835,5.199939,11.19327)"
       style="opacity:0.43037971;fill:#ffffff;fill-opacity:1;fill-rule:nonzero;stroke:none;stroke-width:1;stroke-linecap:butt;stroke-linejoin:miter;marker:none;marker-start:none;marker-mid:none;marker-end:none;stroke-miterlimit:4;stroke-dashoffset:0;stroke-opacity:1;visibility:visible;display:inline;overflow:visible;font-family:Bitstream Vera Sans"
       id="path2612" />
    <path
       d="M 16.5 22.6875 A 1.75 1.8125 0 1 1  13,22.6875 A 1.75 1.8125 0 1 1  16.5 22.6875 z"
       transform="matrix(0.45611,0,0,0.45611,21.05015,20.19994)"
       style="fill:#ffffff;fill-opacity:1;fill-rule:nonzero;stroke:none;stroke-width:1;stroke-linecap:butt;stroke-linejoin:miter;marker:none;marker-start:none;marker-mid:none;marker-end:none;stroke-miterlimit:4;stroke-dashoffset:0;stroke-opacity:1;visibility:visible;display:inline;overflow:visible;font-family:Bitstream Vera Sans"
       id="path2629" />
    <path
       d="M 42.25 20.5625 A 1.625 0.6875 0 1 1  39,20.5625 A 1.625 0.6875 0 1 1  42.25 20.5625 z"
       transform="matrix(1.038462,0,0,1.636364,-0.440038,-13.90355)"
       style="fill:#c5c5c5;fill-opacity:0.52866247;fill-rule:nonzero;stroke:none;stroke-width:2;stroke-linecap:butt;stroke-linejoin:miter;marker:none;marker-start:none;marker-mid:none;marker-end:none;stroke-miterlimit:4;stroke-dasharray:none;stroke-dashoffset:0;stroke-opacity:1;visibility:visible;display:block;overflow:visible"
       id="path2641" />
    <path
       d="M 42.25 20.5625 A 1.625 0.6875 0 1 1  39,20.5625 A 1.625 0.6875 0 1 1  42.25 20.5625 z"
       transform="matrix(1.038462,0,0,1.636364,-0.377538,-13.52855)"
       style="fill:#565656;fill-opacity:1;fill-rule:nonzero;stroke:none;stroke-width:2;stroke-linecap:butt;stroke-linejoin:miter;marker:none;marker-start:none;marker-mid:none;marker-end:none;stroke-miterlimit:4;stroke-dasharray:none;stroke-dashoffset:0;stroke-opacity:1;visibility:visible;display:block;overflow:visible"
       id="path2639" />
    <path
       d="M 24.018819,27.22885 C 26.621558,23.861208 32.77448,23.036137 36.293738,26.187611"
       style="fill:none;fill-opacity:1;fill-rule:nonzero;stroke:#777777;stroke-width:0.16239765;stroke-linecap:butt;stroke-linejoin:miter;marker:none;marker-start:none;marker-mid:none;marker-end:none;stroke-miterlimit:4;stroke-dasharray:none;stroke-dashoffset:0;stroke-opacity:1;visibility:visible;display:block;overflow:visible"
       id="path2650" />
    <path
       d="M 30.967443,30.624726 C 29.347476,30.624726 28.057088,31.992625 28.057088,33.670448 C 28.057088,34.054293 28.303805,34.31361 28.429343,34.651847 C 28.556023,34.669201 28.636521,34.787212 28.767756,34.787212 C 30.38411,34.787212 31.678111,33.449413 31.678111,31.775332 C 31.678111,31.381722 31.403961,31.105269 31.272016,30.760092 C 31.157056,30.745898 31.086073,30.624726 30.967443,30.624726 z "
       style="opacity:0.67088611;fill:#ffffff;fill-opacity:1;fill-rule:nonzero;stroke:none;stroke-width:1;stroke-linecap:butt;stroke-linejoin:miter;marker:none;marker-start:none;marker-mid:none;marker-end:none;stroke-miterlimit:4;stroke-dashoffset:0;stroke-opacity:1;visibility:visible;display:inline;overflow:visible;font-family:Bitstream Vera Sans"
       id="path2668" />
  </g>
</svg>
