<?xml version="1.0" standalone="no"?>
<!DOCTYPE svg PUBLIC "-//W3C//DTD SVG 20010904//EN"
 "http://www.w3.org/TR/2001/REC-SVG-20010904/DTD/svg10.dtd">
<svg version="1.0" xmlns="http://www.w3.org/2000/svg"
 width="1280.000000pt" height="1280.000000pt" viewBox="0 0 1280.000000 1280.000000"
 preserveAspectRatio="xMidYMid meet">
<metadata>
Created by potrace 1.15, written by Peter Selinger 2001-2017
</metadata>
<g transform="translate(0.000000,1280.000000) scale(0.100000,-0.100000)"
fill="#e91e63" stroke="none">
<path d="M0 10475 l0 -2325 580 0 580 0 0 -585 0 -585 -580 0 -580 0 0 -580 0
-580 580 0 580 0 0 580 0 580 585 0 585 0 0 -580 0 -580 580 0 580 0 0 -585 0
-585 -1745 0 -1745 0 0 -2325 0 -2325 2325 0 2325 0 0 2325 0 2325 1748 2
1747 3 0 580 0 580 -582 3 -583 2 0 580 0 580 1165 0 1165 0 0 -580 0 -580
580 0 580 0 0 -585 0 -585 -580 0 -580 0 0 -580 0 -580 -1455 0 -1455 0 0
-1745 0 -1745 580 0 580 0 2 1163 3 1162 1163 3 1162 2 0 -585 0 -585 -580 0
-580 0 0 -580 0 -580 580 0 580 0 0 580 0 580 580 0 580 0 2 583 3 582 293 3
292 2 0 580 0 580 580 0 580 0 0 580 0 580 -580 0 -580 0 0 -580 0 -580 -585
0 -585 0 0 580 0 580 583 2 582 3 3 583 2 582 580 0 580 0 0 580 0 580 -580 0
-580 0 0 585 0 585 580 0 580 0 0 2325 0 2325 -2325 0 -2325 0 0 -2325 0
-2325 -1750 0 -1750 0 0 2325 0 2325 -2325 0 -2325 0 0 -2325z m3490 0 l0
-1165 -1165 0 -1165 0 0 1158 c0 637 3 1162 7 1165 3 4 528 7 1165 7 l1158 0
0 -1165z m8148 -2 l2 -1163 -1165 0 -1165 0 0 1165 0 1165 1163 -2 1162 -3 3
-1162z m-6986 -2905 l3 -583 583 -3 582 -2 0 -580 0 -580 -1165 0 -1165 0 0
580 0 580 -580 0 -580 0 0 585 0 585 1160 0 1160 0 2 -582z m5818 -3 l0 -585
585 0 585 0 0 -580 0 -580 -585 0 -585 0 0 580 0 580 -580 0 -580 0 0 585 0
585 580 0 580 0 0 -585z m-6980 -5240 l0 -1165 -1162 2 -1163 3 -3 1163 -2
1162 1165 0 1165 0 0 -1165z"/>
<path d="M1750 10470 l0 -580 580 0 580 0 0 580 0 580 -580 0 -580 0 0 -580z"/>
<path d="M9890 10470 l0 -580 580 0 580 0 0 580 0 580 -580 0 -580 0 0 -580z"/>
<path d="M1750 2330 l0 -580 580 0 580 0 0 580 0 580 -580 0 -580 0 0 -580z"/>
<path d="M5820 11635 l0 -1165 -290 0 -290 0 0 -580 0 -580 290 0 290 0 0
-290 0 -290 580 0 580 0 0 870 0 870 290 0 290 0 0 585 0 585 -290 0 -290 0 0
580 0 580 -580 0 -580 0 0 -1165z"/>
<path d="M11640 580 l0 -580 580 0 580 0 0 580 0 580 -580 0 -580 0 0 -580z"/>
</g>
</svg>
